# xmcd
#
# Track frame offsets:
#	150
#	12387
#	25621
#	38532
#	51320
#	64761
#	77585
#	92185
#	105072
#	117793
#	131063
#	144736
#	158232
#	170816
#	185945
#	199540
#	212924
#	225503
#	238824
#	253080
#	266171
#	278556
#	291607
#	305669
#
# Disc length: 4254 seconds
#
# Revision: 1
# Processed by: cddbd v1.4b42PL1 Copyright (c) Steve Scherf et al.
# Submitted via: audiograbber 1.80
#
DISCID=62109c18
DTITLE=Peter Chatman - Nothing But The Blues - Peter Chatman
DYEAR=1900
DGENRE=
TTITLE0=Blues At Midnight
TTITLE1=You Didn't Mean Me No Good
TTITLE2=This Life I'm Living
TTITLE3=Maybe I'll Loan You A Dime
TTITLE4=You Got To Help Me Some
TTITLE5=Me, Mayself And I
TTITLE6=Lend Me Your Love
TTITLE7=Diggin' My Potatoes
TTITLE8=You Gonna Worry Too
TTITLE9=Whiskey Store Blues
TTITLE10=Caught The Old Coon At Last
TTITLE11=Two Of A Kind
TTITLE12=Blue Evening Blues
TTITLE13=Beer Drinking Woman
TTITLE14=Miss Ora Lee Blues
TTITLE15=Last Pair Of Shoes Blues
TTITLE16=The Jive Blues
TTITLE17=Shelby County Blues
TTITLE18=Grinder Man Blues
TTITLE19=Empty Room Blues
TTITLE20=Old Taylor
TTITLE21=Jasper's Gal
TTITLE22=I Believe I'll Settle Down
TTITLE23=I See My Great Mistake
EXTD=
EXTT0=
EXTT1=
EXTT2=
EXTT3=
EXTT4=
EXTT5=
EXTT6=
EXTT7=
EXTT8=
EXTT9=
EXTT10=
EXTT11=
EXTT12=
EXTT13=
EXTT14=
EXTT15=
EXTT16=
EXTT17=
EXTT18=
EXTT19=
EXTT20=
EXTT21=
EXTT22=
EXTT23=
PLAYORDER=
